<?xml version="1.0" encoding="utf-8"?>
<!-- Generator: Adobe Illustrator 23.0.1, SVG Export Plug-In . SVG Version: 6.00 Build 0)  -->
<svg version="1.1" id="Layer_2_xA0_Image_1_" xmlns="http://www.w3.org/2000/svg" xmlns:xlink="http://www.w3.org/1999/xlink"
	 x="0px" y="0px" viewBox="0 0 86.22 86.52" style="enable-background:new 0 0 86.22 86.52;" xml:space="preserve">
<style type="text/css">
	.st0{fill:#173153;}
	.st1{fill:#FFFFFF;stroke:#173153;stroke-miterlimit:10;}
</style>
<circle class="st0" cx="43.11" cy="43.32" r="43.18"/>
<path class="st1" d="M86.31,41.94c0,0.92,0,1.84,0,2.76c-0.02,0.13-0.07,0.25-0.07,0.38c0.02,1.74-0.26,3.45-0.52,5.15
	c-0.32,2.15-0.82,4.28-1.51,6.35c-0.6,1.83-1.32,3.62-2.16,5.36c-0.78,1.6-1.63,3.16-2.61,4.64c-0.74,1.12-1.53,2.21-2.35,3.28
	c-0.63,0.83-1.3,1.64-2.01,2.41c-0.69,0.76-1.43,1.48-2.17,2.18c-0.75,0.71-1.51,1.42-2.31,2.08c-0.89,0.73-1.8,1.42-2.74,2.09
	c-0.66,0.48-1.36,0.9-2.06,1.34c-0.51,0.32-1.04,0.64-1.57,0.93c-0.79,0.44-1.59,0.87-2.4,1.28c-0.49,0.25-1,0.45-1.5,0.68
	c-0.55,0.24-1.08,0.51-1.64,0.72c-0.81,0.31-1.63,0.6-2.46,0.84c-0.97,0.29-1.96,0.54-2.95,0.78c-1.1,0.26-2.2,0.48-3.3,0.71
	c-0.34,0.07-0.69,0.11-1.04,0.14c-0.82,0.08-1.65,0.16-2.48,0.24c-0.91,0.08-1.83,0.21-2.74,0.22c-1.18,0.01-2.35-0.07-3.53-0.15
	c-0.92-0.07-1.85-0.2-2.77-0.3c-0.37-0.04-0.74-0.07-1.1-0.14c-1.29-0.26-2.58-0.52-3.86-0.82c-0.77-0.18-1.52-0.41-2.28-0.63
	c-0.49-0.14-0.97-0.3-1.45-0.48c-0.61-0.23-1.2-0.49-1.8-0.73c-0.53-0.22-1.09-0.41-1.6-0.66c-1.11-0.55-2.2-1.13-3.29-1.72
	c-0.68-0.37-1.36-0.76-2.01-1.19c-0.73-0.47-1.45-0.96-2.14-1.49c-1.26-0.98-2.53-1.96-3.72-3.01c-1.85-1.64-3.51-3.46-5.01-5.43
	c-0.76-1-1.5-2.02-2.17-3.08c-0.79-1.24-1.52-2.53-2.23-3.82c-0.42-0.77-0.77-1.58-1.11-2.38c-0.45-1.05-0.9-2.11-1.27-3.19
	c-0.67-1.97-1.2-3.98-1.56-6.03c-0.1-0.6-0.2-1.2-0.26-1.81c-0.18-1.7-0.42-3.39-0.48-5.09c-0.05-1.58,0.02-3.18,0.18-4.75
	c0.18-1.78,0.5-3.56,0.81-5.33c0.32-1.84,0.87-3.63,1.51-5.39c0.3-0.81,0.6-1.63,0.94-2.43c0.34-0.79,0.71-1.56,1.1-2.33
	c0.37-0.73,0.74-1.46,1.15-2.16c0.52-0.88,1.08-1.75,1.65-2.6c0.52-0.78,1.06-1.55,1.63-2.29c0.54-0.7,1.12-1.38,1.7-2.04
	c0.71-0.81,1.43-1.62,2.19-2.38c1.31-1.3,2.69-2.53,4.19-3.62c0.97-0.71,1.94-1.44,2.97-2.08c1.22-0.76,2.47-1.46,3.75-2.12
	c1.02-0.53,2.08-0.97,3.13-1.43c0.47-0.21,0.96-0.38,1.45-0.56c0.65-0.24,1.3-0.5,1.97-0.7c1.09-0.32,2.19-0.61,3.29-0.88
	c0.79-0.19,1.6-0.35,2.41-0.46c1.46-0.2,2.93-0.4,4.4-0.53c1.18-0.1,2.37-0.11,3.56-0.12c0.66,0,1.31,0.06,1.97,0.13
	c0.74,0.08,1.48,0.2,2.23,0.28c0.48,0.06,0.96,0.05,1.43,0.13c0.8,0.13,1.59,0.28,2.38,0.44c0.56,0.12,1.11,0.27,1.66,0.41
	c0.86,0.23,1.71,0.46,2.57,0.7c0.28,0.08,0.54,0.19,0.82,0.28c0.19,0.06,0.39,0.1,0.57,0.18c0.59,0.23,1.18,0.48,1.77,0.72
	c0.54,0.22,1.07,0.43,1.6,0.66c0.38,0.17,0.76,0.35,1.13,0.55c0.76,0.4,1.51,0.82,2.25,1.24c0.69,0.4,1.39,0.79,2.05,1.23
	c0.9,0.6,1.78,1.22,2.63,1.87c0.9,0.68,1.79,1.38,2.63,2.13c0.92,0.83,1.8,1.72,2.66,2.62c0.77,0.81,1.51,1.65,2.2,2.51
	c0.72,0.89,1.42,1.81,2.05,2.76c0.83,1.25,1.62,2.53,2.38,3.83c0.83,1.43,1.52,2.94,2.13,4.48c0.79,1.96,1.45,3.96,1.89,6.02
	c0.3,1.4,0.56,2.8,0.75,4.22c0.18,1.34,0.26,2.7,0.39,4.05C86.25,41.71,86.29,41.82,86.31,41.94z M42.84,77.93
	c1.26-0.05,2.25-0.05,3.23-0.13c0.82-0.07,1.64-0.23,2.46-0.36c0.68-0.11,1.36-0.23,2.03-0.35c0.24-0.04,0.47-0.11,0.7-0.17
	c0.88-0.23,1.76-0.43,2.63-0.69c0.61-0.18,1.2-0.42,1.79-0.66c0.93-0.37,1.88-0.72,2.78-1.16c1.01-0.5,1.97-1.09,2.95-1.64
	c1.39-0.78,2.67-1.71,3.88-2.75c0.92-0.79,1.84-1.6,2.7-2.46c0.88-0.87,1.71-1.78,2.43-2.8c0.62-0.88,1.32-1.71,1.9-2.61
	c0.59-0.92,1.12-1.89,1.63-2.86c0.42-0.8,0.81-1.63,1.16-2.46c0.66-1.53,1.18-3.12,1.56-4.75c0.29-1.23,0.56-2.48,0.76-3.73
	c0.16-0.98,0.22-1.98,0.31-2.98c0.05-0.6,0.13-1.2,0.11-1.79c-0.06-1.4-0.18-2.81-0.28-4.21c-0.1-1.4-0.39-2.77-0.71-4.13
	c-0.47-2.03-1.06-4.02-1.95-5.91c-0.54-1.16-1.08-2.34-1.72-3.45c-0.62-1.08-1.36-2.09-2.06-3.12c-0.85-1.23-1.83-2.36-2.86-3.45
	c-1.29-1.37-2.69-2.62-4.22-3.72c-0.95-0.69-1.92-1.36-2.94-1.96c-1.02-0.6-2.09-1.11-3.14-1.66c-1.11-0.58-2.28-1.01-3.46-1.38
	c-0.92-0.29-1.84-0.61-2.78-0.83c-1.14-0.26-2.29-0.42-3.44-0.64c-1.35-0.26-2.7-0.42-4.08-0.4c-1.21,0.02-2.42-0.03-3.63,0.07
	c-1.29,0.1-2.58,0.31-3.86,0.51c-0.62,0.1-1.23,0.26-1.84,0.42c-0.53,0.13-1.06,0.28-1.59,0.44c-0.72,0.21-1.44,0.42-2.14,0.67
	c-0.64,0.22-1.26,0.49-1.89,0.75c-0.51,0.22-1.03,0.43-1.53,0.69c-0.75,0.39-1.49,0.8-2.22,1.24c-0.87,0.53-1.75,1.04-2.57,1.64
	c-1.08,0.8-2.13,1.66-3.14,2.54c-0.73,0.63-1.42,1.32-2.07,2.03c-0.62,0.67-1.19,1.37-1.73,2.1c-0.77,1.02-1.55,2.03-2.23,3.11
	c-0.95,1.49-1.73,3.08-2.43,4.7c-0.76,1.76-1.32,3.58-1.78,5.43c-0.46,1.84-0.74,3.72-0.88,5.62c-0.1,1.33-0.26,2.66-0.08,4
	c0.16,1.22,0.19,2.47,0.36,3.69c0.26,1.94,0.71,3.85,1.33,5.71c0.37,1.13,0.77,2.25,1.25,3.33c0.57,1.25,1.22,2.47,1.88,3.67
	c0.41,0.75,0.91,1.46,1.4,2.16c0.41,0.59,0.85,1.16,1.3,1.71c0.55,0.68,1.11,1.37,1.7,2.01c0.55,0.6,1.14,1.17,1.74,1.72
	c0.66,0.61,1.33,1.22,2.05,1.75c1.04,0.77,2.11,1.51,3.2,2.21c0.78,0.5,1.59,0.95,2.41,1.38c0.74,0.39,1.51,0.72,2.27,1.06
	c0.45,0.2,0.92,0.37,1.39,0.54c0.72,0.26,1.44,0.54,2.17,0.75c1.01,0.29,2.02,0.55,3.04,0.76c1.12,0.23,2.26,0.42,3.4,0.55
	C40.71,77.84,41.91,77.87,42.84,77.93z"/>
<path class="st1" d="M50.23,17.44c0.1,0.81-0.26,1.56-0.67,2.28c-0.3,0.53-0.31,0.61,0.11,1.03c1.1,1.09,2.2,2.18,3.29,3.27
	c0.4,0.4,0.79,0.82,1.18,1.23c0.39,0.41,0.67,0.44,1.07,0.06c0.6-0.57,1.18-1.16,1.75-1.76c0.83-0.88,1.8-1.53,2.99-1.76
	c0.42-0.08,0.88-0.05,1.3,0.06c0.66,0.16,1.31,0.41,1.82,0.87c0.36,0.33,0.7,0.71,0.97,1.12c0.64,0.95,0.82,2.01,0.56,3.12
	c-0.2,0.84-0.64,1.55-1.22,2.16c-0.76,0.79-1.55,1.55-2.33,2.33c-0.23,0.23-0.23,0.46,0,0.68c0.98,0.97,1.96,1.93,2.93,2.91
	c0.56,0.56,1.12,1.13,1.67,1.71c0.42,0.44,0.71,0.45,1.24,0.14c1.11-0.66,2.26-0.95,3.53-0.41c1.06,0.45,1.83,1.15,2.4,2.14
	c0.61,1.05,0.66,2.11,0.28,3.22c-0.12,0.34-0.31,0.67-0.5,0.98c-0.28,0.46-0.3,0.54,0,0.97c0.67,0.96,0.93,2.01,0.71,3.16
	c-0.19,1.02-0.7,1.88-1.51,2.52c-1.04,0.82-2.21,1.31-3.57,0.9c-0.51-0.15-0.99-0.41-1.47-0.66c-0.5-0.27-0.73-0.24-1.13,0.17
	c-0.76,0.78-1.53,1.54-2.3,2.32c-0.56,0.56-1.11,1.12-1.66,1.68c-0.2,0.2-0.42,0.4-0.63,0.6c-0.24,0.24-0.24,0.46,0,0.7
	c0.78,0.78,1.59,1.52,2.33,2.33c1.16,1.27,1.7,2.74,1.09,4.43c-0.58,1.59-1.74,2.57-3.41,2.92c-0.74,0.16-1.44-0.05-2.13-0.32
	c-0.81-0.31-1.38-0.9-1.97-1.48c-0.59-0.58-1.16-1.18-1.75-1.76c-0.4-0.38-0.66-0.35-1.05,0.04c-1.12,1.13-2.24,2.25-3.35,3.37
	c-0.4,0.4-0.8,0.81-1.2,1.21c-0.31,0.31-0.31,0.44-0.12,0.84c0.25,0.52,0.56,1.04,0.67,1.59c0.18,0.87,0.14,1.75-0.28,2.6
	c-0.35,0.7-0.75,1.34-1.41,1.78c-1.22,0.81-2.52,1.11-3.91,0.45c-0.29-0.14-0.57-0.28-0.84-0.45c-0.45-0.27-0.64-0.23-1.09,0.05
	c-0.94,0.59-1.95,0.95-3.07,0.66c-0.79-0.21-1.56-0.51-2.11-1.13c-0.69-0.77-1.18-1.65-1.25-2.72c-0.06-0.97,0.15-1.86,0.67-2.68
	c0.32-0.5,0.29-0.65-0.13-1.07c-0.9-0.89-1.81-1.77-2.7-2.67c-0.56-0.56-1.1-1.12-1.65-1.69c-0.03-0.04-0.07-0.07-0.11-0.11
	c-0.5-0.47-0.78-0.42-1.24,0.09c-0.53,0.59-1.11,1.15-1.68,1.7c-0.36,0.35-0.72,0.74-1.15,1c-0.95,0.58-1.97,0.96-3.11,0.63
	c-0.76-0.22-1.51-0.52-2.05-1.12c-1.25-1.39-1.93-3.29-0.64-5.32c0.47-0.74,1.1-1.31,1.7-1.92c0.39-0.4,0.8-0.78,1.19-1.18
	c0.36-0.37,0.36-0.49,0.01-0.86c-0.39-0.41-0.81-0.8-1.21-1.2c-0.57-0.57-1.14-1.14-1.71-1.71c-0.59-0.58-1.17-1.17-1.76-1.75
	c-0.33-0.31-0.59-0.28-0.96-0.04c-0.99,0.64-2.04,1.01-3.23,0.67c-0.73-0.21-1.37-0.6-1.91-1.14c-0.64-0.64-1.15-1.36-1.37-2.25
	c-0.28-1.1-0.01-2.1,0.59-3.02c0.37-0.57,0.38-0.78-0.01-1.34c-0.89-1.29-0.89-3.07-0.02-4.4c0.39-0.6,0.85-1.09,1.47-1.41
	c1.08-0.56,2.2-0.94,3.4-0.36c0.39,0.19,0.79,0.37,1.18,0.56c0.31,0.15,0.57,0.13,0.82-0.11c0.63-0.61,1.24-1.24,1.86-1.86
	c0.55-0.55,1.11-1.09,1.66-1.64c0.42-0.42,0.86-0.83,1.27-1.27c0.26-0.27,0.25-0.43-0.03-0.69c-0.81-0.77-1.66-1.51-2.44-2.31
	c-0.9-0.92-1.41-2.02-1.36-3.34c0.03-0.67,0.28-1.26,0.57-1.84c0.37-0.76,0.97-1.29,1.71-1.66c0.88-0.44,1.78-0.79,2.79-0.46
	c0.9,0.3,1.72,0.74,2.4,1.41c0.7,0.69,1.42,1.35,2.12,2.03c0.41,0.39,0.65,0.41,1.05,0.02c0.6-0.57,1.17-1.17,1.75-1.76
	c0.53-0.53,1.05-1.06,1.59-1.59c0.41-0.41,0.84-0.8,1.24-1.21c0.4-0.41,0.42-0.54,0.08-1.01c-0.35-0.47-0.55-1-0.67-1.55
	c-0.24-1.08,0-2.06,0.57-3c0.39-0.64,0.91-1.12,1.53-1.48c1.1-0.65,2.25-0.92,3.47-0.31c0.35,0.17,0.69,0.35,1.02,0.55
	c0.32,0.18,0.61,0.19,0.92-0.02c0.86-0.59,1.8-0.93,2.87-0.83c0.61,0.06,1.12,0.36,1.64,0.63c0.57,0.3,1.05,0.75,1.36,1.32
	C50.02,15.88,50.3,16.38,50.23,17.44z M43.18,37.17c0.17-0.1,0.32-0.15,0.42-0.25c0.61-0.59,1.21-1.19,1.81-1.79
	c0.57-0.57,1.14-1.14,1.71-1.71c0.4-0.4,0.82-0.79,1.21-1.2c0.34-0.36,0.35-0.48,0.01-0.83c-0.4-0.42-0.82-0.81-1.23-1.22
	c-0.55-0.55-1.1-1.09-1.65-1.64c-0.58-0.59-1.15-1.19-1.75-1.76c-0.4-0.39-0.68-0.35-1.07,0.06c-0.39,0.41-0.78,0.83-1.18,1.23
	c-1.13,1.13-2.27,2.25-3.4,3.37c-0.28,0.28-0.27,0.48,0.01,0.76c0.4,0.39,0.79,0.79,1.19,1.18c0.55,0.55,1.11,1.09,1.66,1.64
	c0.57,0.57,1.12,1.16,1.7,1.73C42.77,36.9,42.98,37.02,43.18,37.17z M31.67,48.69c0.17-0.1,0.31-0.15,0.4-0.24
	c0.61-0.6,1.22-1.2,1.83-1.81c0.56-0.56,1.11-1.11,1.67-1.67c0.44-0.44,0.89-0.86,1.31-1.31c0.26-0.27,0.26-0.4,0.01-0.67
	c-0.42-0.45-0.87-0.87-1.31-1.31c-0.55-0.55-1.1-1.1-1.65-1.65c-0.58-0.59-1.16-1.18-1.75-1.76c-0.38-0.37-0.64-0.34-1.03,0.04
	c-0.33,0.33-0.65,0.67-0.99,1c-1.2,1.21-2.41,2.41-3.62,3.62c-0.28,0.28-0.29,0.48-0.01,0.76c0.38,0.38,0.77,0.76,1.15,1.14
	c0.54,0.54,1.09,1.08,1.63,1.63c0.59,0.59,1.17,1.2,1.77,1.78C31.25,48.42,31.46,48.54,31.67,48.69z M54.7,48.69
	c0.18-0.1,0.32-0.16,0.42-0.26c0.61-0.59,1.2-1.19,1.8-1.79c0.56-0.56,1.13-1.13,1.69-1.69c0.44-0.44,0.88-0.87,1.31-1.31
	c0.22-0.22,0.21-0.44,0-0.65c-0.44-0.44-0.88-0.87-1.31-1.31c-0.55-0.55-1.1-1.09-1.65-1.65c-0.58-0.58-1.14-1.17-1.73-1.74
	c-0.42-0.4-0.7-0.37-1.09,0.05c-0.39,0.41-0.78,0.83-1.18,1.23c-1.13,1.13-2.27,2.25-3.4,3.37c-0.27,0.26-0.26,0.48,0,0.74
	c0.39,0.39,0.78,0.77,1.17,1.16c0.55,0.55,1.11,1.09,1.66,1.64c0.58,0.58,1.14,1.17,1.72,1.74C54.28,48.41,54.5,48.54,54.7,48.69z
	 M43.19,60.21c0.17-0.1,0.31-0.15,0.4-0.24c0.61-0.6,1.22-1.2,1.83-1.81c0.56-0.56,1.11-1.12,1.67-1.67
	c0.41-0.41,0.84-0.8,1.23-1.22c0.36-0.37,0.36-0.49,0.01-0.86c-0.4-0.42-0.82-0.81-1.23-1.22c-0.55-0.55-1.1-1.1-1.65-1.65
	c-0.58-0.59-1.16-1.18-1.75-1.76c-0.39-0.37-0.64-0.35-1.03,0.04c-0.33,0.33-0.65,0.67-0.99,1c-1.2,1.21-2.41,2.41-3.62,3.62
	c-0.28,0.28-0.29,0.49-0.01,0.76c0.36,0.36,0.73,0.71,1.09,1.07c0.58,0.58,1.16,1.15,1.73,1.74c0.58,0.58,1.14,1.17,1.72,1.75
	C42.77,59.94,42.98,60.06,43.19,60.21z"/>
</svg>
